PathFileType	4	(X/Y/Z)	C:\Users\°ÂÌØÂü\Desktop\20210112\bx_y_0_501-Unnamed.trc
DataRate	CameraRate	NumFrames	NumMarkers	Units	OrigDataRate	OrigDataStartFrame	OrigNumFrames
50.00	50.00	       5	0	mm	50.00	1	       603
Frame#	Time	
		

1	0.000	-697.26245	-69.65333	1547.58813	-620.09613	110.92618	1434.13049	-593.01111	-1.21281	1049.27869				-586.26154	-2.12902	800.76978	-581.58643	215.78104	813.88550	-727.03680	249.47884	638.71155	-689.91681	144.36513	571.91754	-731.27338	245.49638	575.77637	-669.93732	20.49293	519.60773	-771.82343	253.75323	503.06293	-676.66241	206.57552	531.99725	-716.69336	79.08202	216.00806	-663.24792	-65.95604	164.27635	-711.45294	151.99197	216.04544	-771.23041	221.61996	205.52205	-622.18146	-76.80540	159.58807	-882.58820	296.14890	144.63239	-674.90088	57.02615	156.88351	-603.58612	20.52918	165.72005	-675.46582	172.51537	157.38718	-594.72272	222.19980	173.52751	-667.41077	298.82944	160.00069	-630.15106	305.97440	162.00188	-560.49060	261.06882	166.27020	-528.01697	304.19867	146.71025	-680.40277	118.69869	1852.04968	-718.46466	289.81635	1538.37793	-517.37762	-72.10751	143.07556	-796.26990	171.64490	184.47771	-766.34039	-4.53304	208.08659	-794.48096	55.90340	175.22375	-789.54077	96.49798	1057.95117	-764.73798	-33.32592	488.12350	-559.63586	-39.33883	164.97043	-876.09265	-78.76758	141.59384	-684.19019	-53.07840	731.11755	-710.28241	-28.03516	612.03241	-719.37506	-23.96982	566.95685	-654.05804	-68.50424	863.57745	-583.19720	221.74855	1069.26038	-685.51563	267.03360	716.99768	-692.29419	80.24561	570.81641	-640.02203	281.47284	876.90503	
2	0.020	-697.37695	-69.65437	1547.53796				-592.87848	-1.12293	1049.22815	-618.89215	108.84428	1436.93713	-586.19208	-2.22286	800.94482	-581.60876	215.86124	813.77820	-727.05914	249.49925	638.73114	-689.89172	144.30695	571.90662	-731.46149	245.51915	575.82550	-669.93732	20.49293	519.60773	-771.77448	253.68111	502.83749	-676.70111	206.48952	531.95679	-717.04956	79.04850	215.86414	-663.31476	-66.07562	164.05290	-711.35449	151.95381	216.14171	-771.35071	221.64925	205.58551	-622.35120	-76.61290	159.46887	-882.56696	296.28058	144.76720	-674.84979	57.06758	156.70668	-603.49249	20.53756	165.63129	-675.49799	172.33070	157.45691	-594.66693	222.05525	173.53712	-667.41077	298.82944	160.00069	-630.15106	305.97440	162.00188	-560.58618	260.99423	166.22148	-528.00739	304.49124	146.85538	-680.59631	118.51448	1852.06250	-718.87506	289.74539	1538.44702	-517.46570	-72.12833	143.15274	-796.25464	171.60838	184.53468	-766.25214	-4.58417	208.17099	-794.53119	55.95140	175.31871	-789.55927	96.48444	1057.92505	-764.77246	-33.31829	487.99268	-559.63586	-39.33883	164.97043	-876.05139	-78.44123	141.62697	-684.43085	-53.14941	731.32721	-710.25073	-27.98075	611.90686	-719.28851	-23.85978	566.79614	-654.05804	-68.50424	863.57745	-583.33899	221.54219	1069.03284	-685.51563	267.03360	716.99768	-692.44543	80.23965	570.68842	-639.98462	281.45908	876.78656	
3	0.040	-697.44904	-69.57819	1547.57092				-592.99548	-1.47634	1049.40833	-618.94708	108.90043	1437.02612	-586.27832	-2.52776	800.89209	-581.49060	215.89719	813.89099	-726.95624	249.38161	638.72369	-690.10175	144.17934	571.79224	-731.31964	245.75378	575.90503	-669.93732	20.49293	519.60773	-771.72260	253.66678	502.91409	-676.45471	206.35338	532.05890	-716.69336	79.08202	216.00806	-663.39081	-66.11185	164.13065	-711.39240	151.92715	216.10622	-771.40076	221.69302	205.57173	-622.29535	-76.82644	159.64510	-882.53644	296.19745	144.72226	-675.02185	57.02223	157.00494	-603.57410	20.57537	165.66504	-675.42059	172.33351	157.29314	-594.59735	222.13107	173.61523	-667.23950	298.93936	160.31178	-630.08136	306.09363	162.05264	-560.45123	260.99109	166.19550	-528.19653	304.60242	146.55702	-680.65198	118.56126	1852.09326	-718.99463	289.76575	1538.29883	-517.46497	-71.90234	143.09843	-796.25464	171.60838	184.53468	-766.25214	-4.58417	208.17099	-794.55334	55.99842	175.23846	-789.45941	96.41592	1057.86719	-764.71155	-33.42713	488.00308	-559.63306	-39.24355	165.03496	-876.00171	-78.61244	141.50562	-684.43781	-53.14947	731.12085	-710.34497	-28.08933	611.89978	-719.28186	-23.80285	566.84393	-654.05804	-68.50424	863.57745	-583.27081	221.66969	1069.14441	-685.44110	266.98376	716.81104	-692.35223	80.09866	570.77722	-640.21246	281.20239	876.56982	
4	0.060	-697.56458	-69.72662	1547.47058				-592.87238	-1.56966	1049.38440	-618.89215	108.84428	1436.93713	-586.20197	-2.81474	800.79028	-581.36639	215.63762	813.94958	-726.97150	249.27922	638.62921	-689.58954	144.34126	572.05872	-731.07288	245.31126	575.72949	-669.95270	20.41533	519.48169	-771.82343	253.75323	503.06293	-676.34784	206.48328	532.16028	-716.69336	79.08202	216.00806	-663.30853	-66.02252	164.08359	-711.25610	151.91563	216.23796	-771.42450	221.64362	205.56042	-622.40497	-76.69248	159.40492	-882.57263	296.24466	144.72812	-674.84979	57.06758	156.70668	-603.55444	20.56953	165.70242	-675.55420	172.44803	157.17439	-594.57410	222.20074	173.57097	-667.20007	298.73795	160.25908	-630.04004	306.06100	162.08282	-560.53815	260.87274	166.15567	-528.04419	304.62152	146.80469	-680.82343	118.59107	1851.97937	-719.17755	289.81311	1538.27979	-517.46497	-71.90234	143.09843	-796.25464	171.60838	184.53468	-766.30603	-4.56782	208.07912	-794.53638	55.90336	175.35983	-789.53711	96.25121	1057.93372	-764.82227	-33.26454	488.10214	-559.63586	-39.33883	164.97043	-876.02838	-78.54763	141.55200	-684.53461	-53.27072	731.16431	-710.34497	-28.08933	611.89978	-719.37506	-23.96982	566.95685	-653.98224	-68.62502	863.59326	-583.44434	221.51117	1069.08472	-685.51563	267.03360	716.99768	-692.41248	80.23928	570.98425	-640.21246	281.20239	876.56982	
5	0.080	-697.67761	-69.71378	1547.45349				-593.18311	-1.59090	1049.35144	-619.17719	108.61528	1436.69763	-586.19318	-2.96302	800.82373	-581.36450	215.71141	814.03137	-726.88135	249.23933	638.55554	-689.60223	144.43109	572.22577	-731.20325	245.39218	575.80896	-669.93732	20.49293	519.60773	-771.82062	253.81238	502.89413	-676.07233	206.20401	532.36475	-716.90887	79.13208	216.00620	-663.21924	-66.12296	164.22679	-711.24213	151.98433	216.15167	-771.40076	221.69302	205.57173	-622.35120	-76.61290	159.46887	-882.51593	296.25482	144.79489	-674.87933	56.91057	157.02075	-603.64136	20.67003	165.64491	-675.63159	172.44522	157.33818	-594.67517	222.09737	173.48880	-667.33447	298.68036	160.09711	-630.08136	306.09363	162.05264	-560.69391	260.90341	166.13361	-528.03589	304.71042	146.77905	-680.96454	118.64021	1852.03699	-719.33466	289.70575	1538.23242	-517.46478	-72.02695	142.97687	-796.23419	171.52786	184.49393	-766.39783	-4.49722	208.01553	-794.65320	55.94528	175.25307	-789.44824	96.24094	1057.96033	-764.89960	-33.45084	487.98273	-559.63483	-39.17476	164.98918	-876.17596	-78.55567	141.83234	-684.52826	-53.34654	731.08344	-710.24866	-28.14069	611.99109	-719.42426	-23.96279	566.84930	-653.98224	-68.62502	863.59326	-583.57269	221.37360	1069.07751	-685.42590	266.79922	716.87543	-692.08264	80.11095	570.73743	-639.81049	281.39200	876.91095	
